<svg width="2000" height="1400" xmlns="http://www.w3.org/2000/svg"><style>.shadow_right{-webkit-filter:drop-shadow(-5px -5px 15px #6d69ae);filter:drop-shadow(-5px -5px 15px #6d69ae)}.shadow_left{-webkit-filter:drop-shadow(5px 5px 15px #6d69ae);filter:drop-shadow(5px 5px 15px #6d69ae)}</style><defs><linearGradient id="gradient__0" x1="0" y1="0" x2="0" y2="1"><stop stop-color="#6d69ae" offset="0%"/><stop stop-color="#efedff" offset="25%"/><stop stop-color="#fff" offset="50%"/><stop stop-color="#efedff" offset="75%"/><stop stop-color="#6d69ae" offset="100%"/></linearGradient><filter id="grain" x="-1000" y="-700" width="4000" height="2800" filterUnits="userSpaceOnUse">&gt;<feFlood flood-color="#fff" result="neutral-gray"/><feTurbulence type="fractalNoise" baseFrequency="2.5" numOctaves="100" stitchTiles="stitch" result="noise"/><feColorMatrix in="noise" type="saturate" values="0" result="destaturatedNoise"/><feComponentTransfer in="desaturatedNoise" result="theNoise"><feFuncA type="table" tableValues="0 0 1 0"/></feComponentTransfer><feBlend in="SourceGraphic" in2="theNoise" mode="soft-light" result="noisy-image"/></filter></defs><g filter="url(#grain)"><path fill="#6d69ae" d="M0 0h2000v1400H0z"/><path id="rect__11" fill="url(#gradient__0)" d="M956.522 334.783h86.957v730.435h-86.957z"/><path class="shadow_left" id="rect__12" fill="url(#gradient__0)" d="M1043.478 304.348h86.957v791.304h-86.957z"/><path class="shadow_left" id="rect__13" fill="url(#gradient__0)" d="M1130.435 273.913h86.957v852.174h-86.957z"/><path class="shadow_left" id="rect__14" fill="url(#gradient__0)" d="M1217.391 243.478h86.957v913.043h-86.957z"/><path class="shadow_left" id="rect__15" fill="url(#gradient__0)" d="M1304.348 213.043h86.957v973.913h-86.957z"/><path class="shadow_left" id="rect__16" fill="url(#gradient__0)" d="M1391.304 182.609h86.957v1034.783h-86.957z"/><path class="shadow_left" id="rect__17" fill="url(#gradient__0)" d="M1478.261 152.174h86.957v1095.652h-86.957z"/><path class="shadow_left" id="rect__18" fill="url(#gradient__0)" d="M1565.217 121.739h86.957v1156.522h-86.957z"/><path class="shadow_left" id="rect__19" fill="url(#gradient__0)" d="M1652.174 91.304h86.957v1217.391h-86.957z"/><path class="shadow_left" id="rect__20" fill="url(#gradient__0)" d="M1739.13 60.87h86.957v1278.261h-86.957z"/><path class="shadow_left" id="rect__21" fill="url(#gradient__0)" d="M1826.087 30.435h86.957v1339.13h-86.957z"/><path class="shadow_left" id="rect__22" fill="url(#gradient__0)" d="M1913.043 0H2000v1400h-86.957z"/><path class="shadow_right" id="rect__10" fill="url(#gradient__0)" d="M869.565 304.348h86.957v791.304h-86.957z"/><path class="shadow_right" id="rect__9" fill="url(#gradient__0)" d="M782.609 273.913h86.957v852.174h-86.957z"/><path class="shadow_right" id="rect__8" fill="url(#gradient__0)" d="M695.652 243.478h86.957v913.043h-86.957z"/><path class="shadow_right" id="rect__7" fill="url(#gradient__0)" d="M608.696 213.043h86.957v973.913h-86.957z"/><path class="shadow_right" id="rect__6" fill="url(#gradient__0)" d="M521.739 182.609h86.957v1034.783h-86.957z"/><path class="shadow_right" id="rect__5" fill="url(#gradient__0)" d="M434.783 152.174h86.957v1095.652h-86.957z"/><path class="shadow_right" id="rect__4" fill="url(#gradient__0)" d="M347.826 121.739h86.957v1156.522h-86.957z"/><path class="shadow_right" id="rect__3" fill="url(#gradient__0)" d="M260.87 91.304h86.957v1217.391H260.87z"/><path class="shadow_right" id="rect__2" fill="url(#gradient__0)" d="M173.913 60.87h86.957v1278.261h-86.957z"/><path class="shadow_right" id="rect__1" fill="url(#gradient__0)" d="M86.957 30.435h86.957v1339.13H86.957z"/><path class="shadow_right" id="rect__0" fill="url(#gradient__0)" d="M0 0h86.957v1400H0z"/></g></svg>