<svg
  width="16px"
  height="16px"
  viewBox="0 0 24 24"
  xmlns="http://www.w3.org/2000/svg"
  mirror-in-rtl="true"
  fill="#000000"
>
  <g id="SVGRepo_bgCarrier" stroke-width="0"></g>
  <g
    id="SVGRepo_tracerCarrier"
    stroke-linecap="round"
    stroke-linejoin="round"
  ></g>
  <g id="SVGRepo_iconCarrier">
    <circle fill="#494c4e" cx="2" cy="2" r="2"></circle>
    <circle fill="#494c4e" cx="2" cy="8" r="2"></circle>
    <circle fill="#494c4e" cx="2" cy="14" r="2"></circle>
    <circle fill="#494c4e" cx="2" cy="20" r="2"></circle>
    <path
      fill="#494c4e"
      d="M23.002 3H7.998c-.55 0-.998-.45-.998-.998V2.002c0-.55.45-.998.998-.998H23c.55 0 1 .45 1 .998V2c0 .55-.45 1-.998 1zM23.002 9H7.998c-.55 0-.998-.45-.998-.998V8.002c0-.55.45-.998.998-.998H23c.55 0 1 .45 1 .998V8c0 .55-.45 1-.998 1zM23.002 15H7.998c-.55 0-.998-.45-.998-.998V14.002c0-.55.45-1 .998-1H23c.55 0 1 .45 1 .998V14c0 .55-.45 1-.998 1zM23.002 21H7.998c-.55 0-.998-.45-.998-.998V20.002c0-.55.45-1 .998-1H23c.55 0 1 .45 1 .998V20c0 .55-.45 1-.998 1z"
    ></path>
  </g>
</svg>
