<svg version="1.1" id="Layer_1" xmlns="http://www.w3.org/2000/svg" xmlns:xlink="http://www.w3.org/1999/xlink" viewBox="0 0 512 512" xml:space="preserve" width="64px" height="64px" fill="#000000"><g id="SVGRepo_bgCarrier" stroke-width="0"></g><g id="SVGRepo_tracerCarrier" stroke-linecap="round" stroke-linejoin="round"></g><g id="SVGRepo_iconCarrier"> <path style="fill:#2BA5F7;" d="M493.244,423.018H18.756C8.398,423.018,0,414.621,0,404.263V103.042 c0-10.358,8.398-18.756,18.756-18.756h474.488c10.358,0,18.756,8.398,18.756,18.756v301.221 C512,414.621,503.602,423.018,493.244,423.018z"></path> <path style="fill:#2197D8;" d="M217.466,392.549v30.469H11.662C5.222,423.018,0,417.797,0,411.356V95.948 c0-6.44,5.222-11.662,11.662-11.662h19.703L217.466,392.549z"></path> <polygon style="fill:#E09B2D;" points="256,338.768 31.365,338.768 31.365,392.549 217.466,392.549 256,392.549 294.534,392.549 349.379,392.549 408.525,392.549 480.635,392.549 480.635,338.768 "></polygon> <polygon style="fill:#F95428;" points="408.525,413.459 408.525,463.632 378.952,445.721 349.379,463.632 349.379,413.459 349.379,382.99 408.525,382.99 "></polygon> <path style="fill:#F7B239;" d="M287.401,48.368C270.064,48.368,256,62.42,256,79.769c0-17.349-14.064-31.401-31.401-31.401H31.365 v35.918v272.358H256h224.635V48.368L287.401,48.368L287.401,48.368z"></path> <path style="fill:#E09B2D;" d="M287.401,48.368v330.177H256V79.769C256,62.42,270.064,48.368,287.401,48.368z"></path> <g> <rect x="76.782" y="102.209" style="fill:#666666;" width="121.864" height="17.923"></rect> <rect x="76.782" y="140.206" style="fill:#666666;" width="121.864" height="17.923"></rect> <rect x="76.782" y="178.202" style="fill:#666666;" width="121.864" height="17.923"></rect> <rect x="76.782" y="216.199" style="fill:#666666;" width="121.864" height="17.923"></rect> <rect x="76.782" y="254.184" style="fill:#666666;" width="121.864" height="17.923"></rect> <rect x="76.782" y="292.181" style="fill:#666666;" width="121.864" height="17.923"></rect> <rect x="313.354" y="102.209" style="fill:#666666;" width="121.864" height="17.923"></rect> <rect x="313.354" y="140.206" style="fill:#666666;" width="121.864" height="17.923"></rect> <rect x="313.354" y="178.202" style="fill:#666666;" width="121.864" height="17.923"></rect> <rect x="313.354" y="216.199" style="fill:#666666;" width="121.864" height="17.923"></rect> <rect x="313.354" y="254.184" style="fill:#666666;" width="121.864" height="17.923"></rect> <rect x="313.354" y="292.181" style="fill:#666666;" width="121.864" height="17.923"></rect> </g> </g></svg>